<svg width="18" height="22" viewBox="0 0 18 22" fill="none" xmlns="http://www.w3.org/2000/svg">
<path d="M13.3125 4.52203C12.1545 3.18463 10.8511 1.98033 9.42656 0.931404C9.30046 0.843065 9.15022 0.795677 8.99625 0.795677C8.84228 0.795677 8.69204 0.843065 8.56594 0.931404C7.14399 1.98077 5.84317 3.18505 4.6875 4.52203C2.11031 7.48172 0.75 10.6017 0.75 13.5455C0.75 15.7335 1.61919 17.8319 3.16637 19.3791C4.71354 20.9263 6.81196 21.7955 9 21.7955C11.188 21.7955 13.2865 20.9263 14.8336 19.3791C16.3808 17.8319 17.25 15.7335 17.25 13.5455C17.25 10.6017 15.8897 7.48172 13.3125 4.52203ZM14.2359 14.4211C14.0415 15.5074 13.5188 16.508 12.7384 17.2882C11.958 18.0685 10.9573 18.5909 9.87094 18.7852C9.83093 18.7916 9.79051 18.795 9.75 18.7955C9.56187 18.7954 9.38063 18.7247 9.24222 18.5972C9.10381 18.4698 9.01834 18.295 9.00277 18.1076C8.9872 17.9201 9.04265 17.7336 9.15814 17.5851C9.27362 17.4366 9.44071 17.3369 9.62625 17.3058C11.1797 17.0442 12.4978 15.7261 12.7612 14.1698C12.7946 13.9737 12.9045 13.7988 13.0667 13.6836C13.229 13.5684 13.4304 13.5225 13.6266 13.5558C13.8227 13.5891 13.9976 13.699 14.1128 13.8613C14.228 14.0235 14.2739 14.2249 14.2406 14.4211H14.2359Z" fill="#D9D9D9"/>
</svg>
